Coordinates
version=1
nRows=29
nColumns=24
inDegrees=yes

Units are S.I. units (second, meters, Newtons, ...)
Angles are in degrees.

endheader
time	pelvis_tilt	pelvis_list	pelvis_rotation	pelvis_tx	pelvis_ty	pelvis_tz	hip_flexion_r	hip_adduction_r	hip_rotation_r	knee_angle_r	ankle_angle_r	subtalar_angle_r	mtp_angle_r	hip_flexion_l	hip_adduction_l	hip_rotation_l	knee_angle_l	ankle_angle_l	subtalar_angle_l	mtp_angle_l	lumbar_extension	lumbar_bending	lumbar_rotation
      3.81000000	     -4.33368514	      8.25492554	      2.52408500	     -0.62132711	     -0.01770604	     -0.11355877	     29.72107819	     -7.77176003	      0.26494789	    -68.49086113	    -10.57896160	      8.52245163	     23.98064619	      9.09108758	     17.37394976	      6.35067703	    -13.63074433	      5.33514798	     -0.97053235	    -10.54961986	      5.55443209	    -11.85515824	     -5.71215535
      3.81500000	     -4.23635353	      7.99296230	      2.67187826	     -0.61536078	     -0.01696003	     -0.11393897	     30.27768382	     -7.50924450	      0.01810627	    -67.62551030	    -10.13329578	      8.28687175	     23.87248583	      8.23189858	     17.09492334	      6.68130250	    -13.21083007	      5.61636883	     -0.81725963	    -10.55116441	      5.41089323	    -11.59293867	     -5.80911932
      3.82000000	     -4.11888816	      7.73349441	      2.85078983	     -0.60943081	     -0.01621631	     -0.11433532	     30.76320827	     -7.26228791	     -0.25020916	    -66.67125891	     -9.67812427	      8.06019413	     23.71150367	      7.36388550	     16.80680111	      6.97494621	    -12.80368796	      5.85863084	     -0.58239102	    -10.51343863	      5.22676218	    -11.33610304	     -5.96779095
      3.82500000	     -4.00930466	      7.47192206	      3.03852581	     -0.60349720	     -0.01555443	     -0.11476782	     31.22622216	     -7.03081927	     -0.53479668	    -65.65142695	     -9.22793034	      7.88708603	     23.51388057	      6.51308906	     16.51065459	      7.23285016	    -12.40341939	      6.13003346	     -0.31322379	    -10.41704128	      5.05599945	    -11.07566992	     -6.12532404
      3.83000000	     -3.89932811	      7.21797192	      3.23602004	     -0.59757949	     -0.01496379	     -0.11520911	     31.65763512	     -6.81767528	     -0.82753689	    -64.56949371	     -8.76658965	      7.75643844	     23.27791895	      5.67528244	     16.21542834	      7.46751916	    -12.01768730	      6.40426135	     -0.01472228	    -10.27088037	      4.88139180	    -10.82521860	     -6.28918388
      3.83500000	     -3.78415988	      6.97289430	      3.43901832	     -0.59166375	     -0.01444862	     -0.11564560	     32.05329031	     -6.62127661	     -1.12598182	    -63.43183940	     -8.28069823	      7.66723386	     22.99520057	      4.83989016	     15.92239024	      7.69555779	    -11.64037119	      6.68647795	      0.29320987	    -10.07413535	      4.70049568	    -10.58369197	     -6.45170924
      3.84000000	     -3.71194818	      6.71270397	      3.65127291	     -0.58575303	     -0.01400143	     -0.11610668	     32.46100234	     -6.41702555	     -1.41585189	    -62.21611931	     -7.83178667	      7.66545454	     22.75060579	      4.06682260	     15.61470438	      7.90181932	    -11.27665568	      6.92632596	      0.56446061	     -9.90098700	      4.56595906	    -10.32528474	     -6.63634292
      3.84500000	     -3.63302643	      6.46191552	      3.85873244	     -0.57985776	     -0.01364369	     -0.11656555	     32.84089446	     -6.22970017	     -1.71090288	    -60.95383133	     -7.37931686	      7.70327376	     22.50910173	      3.29242489	     15.31527781	      8.11516835	    -10.91585604	      7.18607661	      0.80160500	     -9.73166203	      4.42421852	    -10.07290814	     -6.81707485
      3.85000000	     -3.52135990	      6.22989484	      4.07497171	     -0.57396395	     -0.01331538	     -0.11696079	     33.14396502	     -6.05763983	     -2.00285890	    -59.63058969	     -6.88320985	      7.77144399	     22.21893699	      2.49463019	     15.02537125	      8.36001693	    -10.58035808	      7.43474834	      1.01866302	     -9.55495740	      4.24428118	     -9.85725437	     -7.00474302
      3.85500000	     -3.43689197	      5.99952713	      4.28775033	     -0.56810837	     -0.01306915	     -0.11735694	     33.45667281	     -5.88855759	     -2.27532636	    -58.25589894	     -6.41398926	      7.91207893	     21.94376901	      1.74244976	     14.73936389	      8.60519817	    -10.25894127	      7.65760902	      1.17582984	     -9.41852727	      4.08990761	     -9.63432902	     -7.18726645
      3.86000000	     -3.35178655	      5.77853686	      4.49561189	     -0.56227329	     -0.01288754	     -0.11770856	     33.74318241	     -5.72503994	     -2.53561799	    -56.83213489	     -5.94772438	      8.09925767	     21.67685251	      1.00070937	     14.45947927	      8.86594745	     -9.95132184	      7.87472806	      1.28372245	     -9.31836281	      3.93001544	     -9.42733894	     -7.36663409
      3.86500000	     -3.26692008	      5.56699863	      4.69898345	     -0.55646660	     -0.01276689	     -0.11802729	     34.00582860	     -5.56748872	     -2.77907227	    -55.36254283	     -5.49244533	      8.33416876	     21.41802980	      0.27174574	     14.18699890	      9.13630182	     -9.65844655	      8.08447098	      1.34668746	     -9.25924492	      3.76451156	     -9.23323178	     -7.54243630
      3.87000000	     -3.19196697	      5.37005049	      4.89070884	     -0.55067864	     -0.01271253	     -0.11830194	     34.25551329	     -5.41624240	     -2.99457991	    -53.84892922	     -5.05621636	      8.60617622	     21.17595378	     -0.43260639	     13.92685931	      9.40399436	     -9.38399957	      8.28946530	      1.37384232	     -9.24131599	      3.60614170	     -9.05533490	     -7.70409757
      3.87500000	     -3.11417397	      5.18747054	      5.07261499	     -0.54490101	     -0.01270940	     -0.11854508	     34.47656428	     -5.27258664	     -3.18469380	    -52.29457669	     -4.63711146	      8.91285675	     20.93951880	     -1.12890466	     13.67912286	      9.66947019	     -9.12703512	      8.49566656	      1.37785524	     -9.26125545	      3.44377605	     -8.89324627	     -7.85840699
      3.88000000	     -3.04080393	      5.01950201	      5.24495882	     -0.53916408	     -0.01276121	     -0.11874413	     34.67981081	     -5.13647014	     -3.35019715	    -50.70113836	     -4.23680094	      9.24417277	     20.71778600	     -1.80355242	     13.44259780	      9.91379888	     -8.89046839	      8.70326898	      1.37595726	     -9.31276568	      3.27918832	     -8.74970514	     -8.00342507
      3.88500000	     -2.97354237	      4.86624503	      5.40365566	     -0.53344278	     -0.01286630	     -0.11890015	     34.86516880	     -5.00606336	     -3.48707533	    -49.07191346	     -3.85683948	      9.59027401	     20.50948188	     -2.45651929	     13.21745793	     10.12817446	     -8.67525840	      8.91798356	      1.38524658	     -9.38576437	      3.11405627	     -8.62477134	     -8.13511369
      3.89000000	     -2.90893637	      4.73063651	      5.55090628	     -0.52774013	     -0.01301811	     -0.11903136	     35.02795456	     -4.88577457	     -3.59194728	    -47.40915111	     -3.49765189	      9.94088450	     20.30876446	     -3.09134471	     13.00744390	     10.30571988	     -8.48281727	      9.14463680	      1.42369070	     -9.47101756	      2.95112707	     -8.51390607	     -8.25671152
      3.89500000	     -2.85230988	      4.60961280	      5.68592424	     -0.52206204	     -0.01321866	     -0.11913370	     35.17466697	     -4.77355094	     -3.66736167	    -45.71476121	     -3.15884104	     10.28593967	     20.11784636	     -3.69905749	     12.80899623	     10.43496492	     -8.31679388	      9.38415573	      1.50761424	     -9.55464018	      2.79017380	     -8.42328361	     -8.36561316
      3.90000000	     -2.79183801	      4.50192202	      5.81077567	     -0.51639869	     -0.01344593	     -0.11920312	     35.28909226	     -4.66676932	     -3.71436485	    -43.99154163	     -2.84144579	     10.62474935	     19.92260167	     -4.29261494	     12.61808511	     10.51557499	     -8.18102629	      9.64277677	      1.65878340	     -9.63395238	      2.61998823	     -8.34516910	     -8.46865751
      3.90500000	     -2.74889271	      4.40645167	      5.92518906	     -0.51074500	     -0.01373039	     -0.11927382	     35.39531236	     -4.57359447	     -3.74554282	    -42.24183287	     -2.53308537	     10.93848579	     19.74077588	     -4.84902650	     12.43971925	     10.53196096	     -8.07247271	      9.91687840	      1.87387400	     -9.68448048	      2.46577378	     -8.27745856	     -8.55445047
      3.91000000	     -2.69562192	      4.32277516	      6.02884483	     -0.50510379	     -0.01403060	     -0.11932066	     35.45986357	     -4.48613075	     -3.75403472	    -40.46763044	     -2.24034181	     11.22639718	     19.54477802	     -5.39828560	     12.26574736	     10.48484268	     -7.99445003	     10.21533130	      2.19218604	     -9.71027183	      2.29867959	     -8.22220687	     -8.64303913
      3.91500000	     -2.72091873	      4.23805773	      6.11706275	     -0.49948163	     -0.01443781	     -0.11938436	     35.59020656	     -4.40044302	     -3.72035677	    -38.67745954	     -2.00509747	     11.51564335	     19.37745508	     -5.84144314	     12.10249534	     10.43571940	     -7.94625403	     10.49675513	      2.48475905	     -9.68035215	      2.21235862	     -8.16007954	     -8.67302182
      3.92000000	     -2.61314483	      4.18546277	      6.21021786	     -0.49385967	     -0.01473442	     -0.11937369	     35.52652697	     -4.33202969	     -3.69343329	    -36.86405279	     -1.70312215	     11.69519476	     19.11560447	     -6.41304895	     11.93481702	     10.18571810	     -7.92965060	     10.87152579	      3.13385214	     -9.62170580	      1.96822811	     -8.14029885	     -8.80343926
      3.92500000	     -2.60427411	      4.11429619	      6.28922252	     -0.48818625	     -0.01516674	     -0.11942532	     35.54958710	     -4.26795368	     -3.70211570	    -35.04614214	     -1.41185954	     11.88450479	     18.87825344	     -6.86228611	     11.76791783	      9.93362517	     -7.94036411	     11.23053253	      3.71499640	     -9.52940252	      1.85114777	     -8.08955623	     -8.85040179
      3.93000000	     -2.59873428	      4.06152557	      6.35530993	     -0.48252936	     -0.01562334	     -0.11946755	     35.55265557	     -4.21208356	     -3.65987087	    -33.23073496	     -1.14264421	     12.02781363	     18.60789463	     -7.29461821	     11.61597198	      9.63777335	     -7.97501875	     11.58813919	      4.38740639	     -9.39361062	      1.72936000	     -8.05689261	     -8.91070693
      3.93500000	     -2.60639892	      4.00256642	      6.42274699	     -0.47686751	     -0.01611534	     -0.11950367	     35.54447581	     -4.15792032	     -3.63356466	    -31.42167231	     -0.87310773	     12.15190994	     18.31062313	     -7.69634996	     11.45330670	      9.29896693	     -8.03538672	     11.95376127	      5.12248895	     -9.21699899	      1.61519236	     -8.01901288	     -8.96152082
      3.94000000	     -2.65283920	      3.93797903	      6.48104083	     -0.47122716	     -0.01665910	     -0.11958626	     35.56100539	     -4.10799958	     -3.59206299	    -29.62665899	     -0.65337265	     12.30457023	     18.01167789	     -8.04147458	     11.29419821	      9.02080809	     -8.12332773	     12.29454934	      5.79822609	     -9.02661319	      1.54192498	     -7.96162837	     -8.98185685
      3.94500000	     -2.65089302	      3.95488179	      6.51208516	     -0.46557098	     -0.01722447	     -0.11952296	     35.52883980	     -4.09943707	     -3.49126229	    -27.91998629	     -0.31541403	     12.34839802	     17.51062342	     -8.41532742	     11.19515080	      8.44672875	     -8.26152349	     12.69107220	      6.86130571	     -8.75743808	      1.40645620	     -8.01195643	     -9.07018400
      3.95000000	     -2.75068875	      3.90193814	      6.57999092	     -0.45983843	     -0.01790045	     -0.11966333	     35.58415742	     -4.09480327	     -3.55450676	    -26.23695791	     -0.02291330	     12.52624803	     17.10332163	     -8.69179715	     11.05514061	      8.17655552	     -8.38910388	     13.00670571	      7.51951266	     -8.56280015	      1.39957155	     -7.95971049	     -9.09506722
